<svg width="24" height="24" viewBox="0 0 24 24" fill="none" xmlns="http://www.w3.org/2000/svg">
<path d="M21.06 11.82L20.9 11.6C20.62 11.26 20.29 10.99 19.91 10.79C19.4 10.5 18.82 10.35 18.22 10.35H5.77C5.17 10.35 4.6 10.5 4.08 10.79C3.69 11 3.34 11.29 3.05 11.65C2.48 12.38 2.21 13.28 2.3 14.18L2.67 18.85C2.8 20.26 2.97 22 6.14 22H17.86C21.03 22 21.19 20.26 21.33 18.84L21.7 14.19C21.79 13.35 21.57 12.51 21.06 11.82ZM14.39 17.34H9.6C9.21 17.34 8.9 17.02 8.9 16.64C8.9 16.26 9.21 15.94 9.6 15.94H14.39C14.78 15.94 15.09 16.26 15.09 16.64C15.09 17.03 14.78 17.34 14.39 17.34Z" fill="#38543E"/>
<path d="M20.5611 8.59643C20.5987 8.97928 20.1834 9.23561 19.8186 9.11348C19.3138 8.94449 18.7825 8.86 18.23 8.86H5.77C5.21316 8.86 4.66491 8.95012 4.15335 9.12194C3.79295 9.24298 3.38 8.99507 3.38 8.61489V6.66C3.38 3.09 4.47 2 8.04 2H9.22001C10.65 2 11.1 2.46 11.68 3.21L12.88 4.81C13.13 5.15 13.14 5.17 13.58 5.17H15.96C19.0857 5.17 20.307 6.00724 20.5611 8.59643Z" fill="#38543E"/>
</svg>
