<svg width="24" height="24" viewBox="0 0 24 24" fill="none" xmlns="http://www.w3.org/2000/svg">
<path d="M17.08 14.15C14.29 12.29 9.73999 12.29 6.92999 14.15C5.65999 15 4.95999 16.15 4.95999 17.38C4.95999 18.61 5.65999 19.75 6.91999 20.59C8.31999 21.53 10.16 22 12 22C13.84 22 15.68 21.53 17.08 20.59C18.34 19.74 19.04 18.6 19.04 17.36C19.03 16.13 18.34 14.99 17.08 14.15Z" fill="#38543E"/>
<path d="M8 8.36364C8 9.32806 8.42143 10.253 9.17157 10.9349C9.92172 11.6169 10.9391 12 12 12C13.0609 12 14.0783 11.6169 14.8284 10.9349C15.5786 10.253 16 9.32806 16 8.36364M11.5 2C11.2 2 11 2.19091 11 2.45455V5.18182H10V2.90909C10 2.90909 7.75 3.69091 7.75 6.31818C7.75 6.31818 7 6.44545 7 7.45455H17C16.95 6.44545 16.25 6.31818 16.25 6.31818C16.25 3.69091 14 2.90909 14 2.90909V5.18182H13V2.45455C13 2.19091 12.81 2 12.5 2H11.5Z" fill="#38543E"/>
</svg>
