<svg width="24" height="24" viewBox="0 0 24 24" fill="none" xmlns="http://www.w3.org/2000/svg">
<path d="M20.016 11.724C19.2544 12.4872 18.2835 13.0075 17.2262 13.219C16.1689 13.4304 15.0726 13.3236 14.076 12.912L7.584 20.736C6.396 21.924 4.476 21.924 3.288 20.736C2.1 19.548 2.1 17.628 3.288 16.452L11.112 9.948C10.296 7.968 10.692 5.616 12.3 4.008C13.836 2.472 16.044 2.064 17.964 2.736L14.496 6.204L17.88 9.588L21.312 6.144C21.948 8.04 21.528 10.212 20.016 11.724ZM4.572 19.452C5.052 19.92 5.82 19.92 6.288 19.452C6.768 18.972 6.768 18.204 6.288 17.736C5.82 17.256 5.052 17.256 4.572 17.736C4.34701 17.9649 4.22094 18.273 4.22094 18.594C4.22094 18.915 4.34701 19.2231 4.572 19.452Z" fill="#38543E"/>
</svg>
