<svg id="Layer_1" enable-background="new 0 0 512 512" height="512" viewBox="0 0 512 512" width="512" xmlns="http://www.w3.org/2000/svg"><g clip-rule="evenodd" fill-rule="evenodd"><path d="m43.11 366.8c-1.67 0-3.17.68-4.25 1.76-1.08 1.11-1.76 2.61-1.76 4.25s.68 3.15 1.76 4.25c1.08 1.08 2.58 1.73 4.25 1.73 1.64 0 3.15-.65 4.22-1.73 1.11-1.11 1.76-2.61 1.76-4.25s-.65-3.15-1.76-4.25c-1.07-1.08-2.57-1.76-4.22-1.76z"/><path d="m83.96 339.14h-81.72c-.6 0-1.16.26-1.56.68-.43.4-.68.96-.68 1.56v156.7c0 .62.25 1.19.68 1.59.4.42.96.68 1.56.68h81.72c.62 0 1.16-.26 1.59-.68.4-.4.65-.96.65-1.59v-156.7c0-.6-.26-1.16-.65-1.56-.43-.43-.97-.68-1.59-.68zm-24.55 49.97c-4.17 4.17-9.95 6.77-16.3 6.77-6.38 0-12.13-2.61-16.33-6.77-4.17-4.17-6.75-9.92-6.75-16.3s2.58-12.13 6.75-16.3c4.2-4.2 9.95-6.77 16.33-6.77 6.35 0 12.13 2.58 16.3 6.77 4.17 4.17 6.75 9.92 6.75 16.3s-2.58 12.13-6.75 16.3z"/><path d="m257.41 95.39c5.36 1.36 11.14 2.44 17.32 3.26 7.51.96 15.73 1.5 24.46 1.5s16.92-.54 24.46-1.5c6.15-.82 11.96-1.9 17.32-3.26l25.29-58.54c4.02-9.3 1.62-19.79-5.7-26.39-5.84-5.24-14.17-5.95-20.81-1.7l-6.32 4.05c-5.78 3.69-12.78 3.69-18.57 0l-6.41-4.11c-5.78-3.71-12.76-3.71-18.54 0l-6.44 4.11c-5.78 3.69-12.76 3.69-18.54 0l-6.35-4.05c-6.6-4.25-14.97-3.54-20.81 1.7-7.29 6.6-9.69 17.09-5.67 26.39z"/><path d="m138.73 342.96c12.5-2.86 25.14-4.31 37.96-3.91 12.81.4 25.31 2.61 37.59 6.21l136.29 40.05c6.92 2.01 13.44 5.44 18.4 10.63l85.61-20.83c14.09-24.07 22.14-51.73 22.14-81.18 0-75.15-53.09-145.98-124.81-184.2-.6.37-1.22.62-1.9.82-7.26 2.13-15.42 3.8-24.21 4.96-8.53 1.11-17.46 1.7-26.59 1.7s-18.08-.6-26.62-1.7c-8.76-1.16-16.92-2.83-24.18-4.96-.68-.2-1.33-.45-1.93-.82-71.69 38.21-124.78 109.05-124.78 184.2 0 17.8 2.92 34.92 8.36 51.02zm123.39-39.46c4.37-1.81 9.33.26 11.14 4.59 1.02 2.41 2.18 4.59 3.49 6.6 4.68 7.12 11 11.28 17.57 13.07 6.6 1.76 13.41 1.22 18.96-1.11 1.33-.57 2.61-1.25 3.8-2.01 1.11-.71 2.07-1.5 2.89-2.35 2.38-2.47 3.94-5.56 4.37-8.76.42-3.03-.2-6.26-2.1-9.16-.65-.99-1.42-1.9-2.3-2.78-3.34-3.23-10.37-4.9-17.86-6.66-11.17-2.64-23.07-5.44-32.06-14.68-3.2-3.32-5.56-7.26-7-11.54-1.93-5.64-2.27-11.82-.99-17.72 1.33-5.98 4.31-11.71 9.04-16.33 3.46-3.34 7.77-6.07 13.01-7.85 1.22-.43 2.52-.79 3.88-1.13.91-.2 1.79-.4 2.69-.57v-15.08c0-4.71 3.83-8.53 8.53-8.53s8.53 3.83 8.53 8.53v14.71c3.17.45 6.29 1.22 9.27 2.32 9.84 3.63 18.08 10.66 21.83 21.69.31.94.6 1.9.85 2.95 1.13 4.59-1.67 9.18-6.24 10.32-4.56 1.11-9.18-1.67-10.29-6.24-.14-.51-.28-1.02-.48-1.56-1.87-5.58-6.26-9.21-11.54-11.14-3.54-1.33-7.48-1.93-11.37-1.87-.2.03-.4.03-.57.03h-.11c-2.38.08-4.76.42-7.03.96-.82.23-1.67.45-2.52.74-2.72.94-4.9 2.3-6.58 3.94-2.21 2.15-3.63 4.85-4.25 7.71-.62 2.92-.48 5.95.45 8.65.65 1.96 1.67 3.71 3.09 5.13 5.47 5.64 14.88 7.88 23.7 9.95 9.84 2.32 19.13 4.51 25.88 11.08 1.87 1.81 3.4 3.71 4.68 5.64 4.28 6.52 5.67 13.78 4.71 20.75-.91 6.83-4.11 13.29-9.04 18.34-1.73 1.81-3.66 3.4-5.75 4.76-2.01 1.33-4.22 2.49-6.58 3.49-3.77 1.56-7.85 2.64-12.1 3.12v14.5c0 4.71-3.83 8.53-8.53 8.53s-8.53-3.83-8.53-8.53v-15.59c-.26-.06-.51-.11-.74-.17-10.35-2.81-20.27-9.24-27.44-20.21-1.84-2.81-3.52-5.92-4.96-9.41-1.81-4.34.26-9.33 4.6-11.12z"/><path d="m511.54 392.43c-.57-1.81-1.64-3.43-3.29-4.71-4.65-3.6-13.35-4.88-26.9-1.59l-104.43 25.43c.65 3.69.54 7.46-.23 11.08-.88 3.97-2.58 7.8-5.02 11.23-2.44 3.4-5.56 6.38-9.33 8.76-2.66 1.64-5.61 3-8.84 3.94-6.38 1.9-13.83 2.27-22.17.45 0 0 0 0-.03 0l-137.57-29.79c-4.59-.99-7.51-5.53-6.52-10.15.99-4.59 5.53-7.51 10.12-6.52l137.59 29.82c.06 0 .14.03.2.03 1.53.34 3.03.54 4.45.65.14 0 .28.03.43.03 5.44.34 9.95-.82 13.32-2.95 1.84-1.13 3.35-2.55 4.45-4.14 1.11-1.5 1.84-3.2 2.24-4.96.62-3 .17-6.18-1.59-8.99l-.17-.25c-2.21-3.34-6.29-6.29-12.53-8.14l-136.29-40.03c-11.42-3.34-22.37-5.19-33.28-5.53-10.97-.34-22.03.82-33.65 3.49l-39.26 8.96v96.92l120.7 35.04c15.45 4.48 30.5 6.26 45.38 5.33 14.85-.94 29.57-4.59 44.33-11l182.61-79.12c8.56-3.71 13.83-10.26 15.31-16.64.59-2.37.56-4.67-.03-6.65z"/></g></svg>