<svg id="Layer_1" enable-background="new 0 0 512 512" height="512" viewBox="0 0 512 512" width="512" xmlns="http://www.w3.org/2000/svg"><g><path d="m419.895 67.335c-11.177-3.009-22.863-1.466-32.902 4.344-20.692 11.977-27.862 38.59-15.984 59.327 5.76 10.056 15.084 17.25 26.256 20.258 3.735 1.006 7.525 1.503 11.293 1.503 7.509 0 14.926-1.977 21.611-5.846 20.692-11.977 27.862-38.59 15.984-59.327-5.761-10.057-15.087-17.251-26.258-20.259zm2.759 66.603c-6.562 3.796-14.193 4.805-21.49 2.842-7.291-1.963-13.378-6.661-17.141-13.229-7.785-13.593-3.083-31.038 10.482-38.89 4.371-2.529 9.217-3.821 14.123-3.821 2.458 0 4.932.324 7.366.979 7.291 1.963 13.379 6.661 17.142 13.229 7.786 13.594 3.084 31.039-10.482 38.89z"/><path d="m506.142 132.175-13.947-12.017c1.099-8.27.975-16.563-.368-24.753l13.141-11.276c5.814-4.989 7.273-13.433 3.468-20.078l-12.065-21.061c-3.823-6.672-11.858-9.655-19.104-7.092l-17.339 6.129c-6.552-5.031-13.758-9.032-21.512-11.944l-3.129-17.03c-1.388-7.565-7.969-13.053-15.645-13.053-.001 0-.003 0-.004 0l-24.232.003c-7.659.002-14.252 5.478-15.675 13.019l-3.431 18.176c-7.55 3.166-14.812 7.543-21.146 12.749l-16.243-5.748c-7.228-2.556-15.267.414-19.113 7.07l-12.168 21.063c-3.839 6.645-2.414 15.095 3.388 20.093l13.947 12.017c-1.098 8.269-.975 16.562.369 24.753l-13.141 11.276c-5.814 4.989-7.273 13.433-3.468 20.078l12.063 21.06c3.822 6.672 11.854 9.657 19.105 7.093l17.339-6.129c6.553 5.031 13.759 9.032 21.512 11.944l3.129 17.032c1.39 7.563 7.972 13.051 15.649 13.051l24.232-.003c7.659-.002 14.251-5.478 15.675-13.02l3.43-18.176c7.547-3.167 14.814-7.543 21.146-12.749l16.246 5.748c7.228 2.558 15.267-.417 19.11-7.07l12.169-21.064c3.838-6.644 2.412-15.093-3.388-20.091zm-9.6 12.588-12.169 21.064c-.23.399-.701.579-1.119.433l-20.361-7.205c-2.615-.926-5.527-.332-7.57 1.542-6.824 6.256-14.893 11.136-23.601 14.271-2.501.899-4.338 3.055-4.831 5.666l-4.201 22.262c-.088.464-.482.801-.938.801l-24.23.003c-.438 0-.814-.321-.896-.763l-3.919-21.333c-.502-2.73-2.472-4.961-5.119-5.797-8.887-2.805-16.972-7.283-24.029-13.309-2.335-1.782-4.791-2.238-7.37-1.367l-21.296 7.527c-.417.149-.866-.018-1.088-.405l-12.063-21.06c-.234-.408-.143-.93.219-1.24l16.438-14.106c2.096-1.798 3.033-4.602 2.442-7.299-1.995-9.092-2.143-18.378-.441-27.601.484-2.622-.46-5.304-2.479-7.043l-17.112-14.743c-.348-.3-.428-.815-.19-1.226l12.168-21.063c.23-.398.701-.579 1.12-.434l20.361 7.205c2.613.924 5.526.331 7.571-1.543 6.821-6.255 14.891-11.139 23.598-14.27 2.501-.899 4.339-3.055 4.832-5.666l4.202-22.263c.087-.464.482-.801.938-.801l24.232 0c.437 0 .812.32.893.763l3.92 21.333c.502 2.73 2.472 4.961 5.119 5.797 8.889 2.806 16.974 7.283 24.029 13.309 2.036 1.737 4.844 2.259 7.37 1.367l21.296-7.528c.422-.148.866.02 1.088.406l12.063 21.06c.234.408.143.93-.219 1.24l-16.438 14.106c-2.096 1.798-3.033 4.602-2.442 7.299 1.994 9.09 2.143 18.376.44 27.601-.484 2.622.46 5.304 2.479 7.043l17.112 14.743c.347.299.427.815.191 1.224z"/><path d="m108.825 270.125c-.004-13.321-11.059-25.096-24.582-25.035l-4.222-.011-.031-37.511c-.011-11.391-17.777-8.705-14.998 1.916l.029 35.556c-7.181-.019-14.363-.038-21.544-.057l-.107-128.544c-.001-1.329-.355-2.634-1.025-3.78l-17.86-30.541-.01-40.285 59.296.276.01 39.802-17.849 30.682c-.668 1.147-1.019 2.45-1.018 3.777l.041 49.448c-2.51 10.437 15.011 12.282 15.001 1.765l-.04-49.198 17.848-30.68c.667-1.146 1.018-2.448 1.018-3.773l-.02-76.434c0-3.868-3.572-7.498-7.522-7.498l-74.296.217c-4.067.011-7.471 3.414-7.478 7.483l.02 76.453c0 1.33.354 2.636 1.025 3.784l17.861 30.543.105 126.463-4.228-.011c-29.201.084-32.922 45.132-4.206 50.14l-.244 149.515c-.065 45.798 68.726 45.449 68.788.177l.245-149.955c11.371-2.227 19.997-12.456 19.993-24.684zm-84.354-243.292-.003-11.638 59.295-.174.003 12.088zm29.813 438.008c-10.687 0-19.5-9.759-19.485-20.229l.244-149.202 38.788-.113-.244 149.446c-.015 11.05-8.675 20.067-19.303 20.098zm29.927-184.575-59.954.175c-12.129 0-12.024-20.474-.006-20.508l59.994.157c12.035 0 12.121 20.14-.034 20.176z"/><path d="m480.17 425.11-.015-33.161c-.022-54.444-24.608-105.242-67.452-139.369-4.278-3.409-11.498-3.755-16.131-.77-16.367-11.112-34.3-19.174-53.47-24.023.756-4.024-.059-9.561-4.044-11.632-23.86-12.396-52.345-12.386-76.193.032-3.984 2.074-4.794 7.618-4.034 11.642-8.796 2.232-17.332 5.139-25.576 8.709l.735-88.306c30.558-7.579 46.697-27.323 46.784-57.414.097-33.33-19.688-71.709-46.021-89.271-6.366-2.577-10.253-.505-11.661 6.218l-.182 62.336c-.274 3.353-2.056 5.199-5.346 5.539l-31.631-.158c-2.956-.015-5.353-2.537-5.344-5.624l.181-62.337c-1.363-6.719-5.231-8.818-11.606-6.297-26.445 17.306-46.461 55.497-46.558 88.835-.087 30.064 15.919 49.956 46.395 57.842l-.829 124.535c-29.682 32.617-46.274 74.911-46.255 119.663l.014 33.077c-29.574 9.029-23.855 54.303 7.762 54.303 22.122 0 42.809 6.577 62.12 16.947 19.391 10.189 41.225 15.574 63.144 15.574h.057l92.146-.039c21.94-.01 43.79-5.413 63.188-15.626 19.293-10.489 39.968-16.991 62.094-17 31.187-.012 37.794-45.443 7.728-54.225zm-89.901-159.431.037 87.957c.002 4.142 3.359 7.497 7.5 7.497h.003c4.143-.002 7.499-3.361 7.497-7.503l-.037-87.772c38.071 31.244 59.866 77.061 59.887 126.098l.015 31.981h-59.834l-.014-30.441c-.002-4.142-3.359-7.497-7.5-7.497-.001 0-.002 0-.003 0-4.143.002-7.499 3.361-7.497 7.503l.013 30.436h-47.15l-.076-180.63c16.906 4.718 32.719 12.22 47.159 22.371zm-62.166-38.145.083 196.402h-54.271l-.083-196.38c17.274-7.582 36.99-7.59 54.271-.022zm-69.189 196.403h-47.149l-.067-158.183c14.276-10.054 30.329-17.697 47.14-22.405zm-121.307-333.834c.067-23.083 11.735-49.681 28.117-66.575l-.134 46.287c-.033 11.341 9.06 20.612 20.27 20.668l31.631.158c10.934 0 20.389-9.588 20.42-20.496l.135-46.232c16.285 17.063 27.797 43.778 27.729 66.863-.071 24.572-13.352 38.972-40.601 44.021-3.532.654-6.104 3.72-6.134 7.312l-.848 101.858c-4.37 2.437-8.638 5.086-12.81 7.924-4.633-2.981-11.855-2.631-16.129.783-2.04 1.628-4.025 3.305-5.982 5.008l.77-115.71c.023-3.605-2.521-6.719-6.061-7.41-27.239-5.328-40.445-19.87-40.373-44.459zm59.09 175.842.067 157.991h-59.834l-.014-31.843c-.019-49.036 21.736-94.872 59.781-126.148zm285 194.464c-2.444 2.53-5.734 3.924-9.262 3.926-24.525.01-47.634 7.212-69.076 18.727-17.253 9.085-36.688 13.892-56.205 13.899l-92.146.039c-.019 0-.033 0-.051 0-19.497-.001-38.92-4.79-56.167-13.853-20.775-11.11-45.11-20.001-69.097-18.668-16.805 0-16.478-25.536.524-25.543h74.05 62.149 69.271 62.15 74.052c10.574.631 18.065 12.927 9.808 21.473z"/></g></svg>