<svg width="40" height="40" viewBox="0 0 40 40" fill="none" xmlns="http://www.w3.org/2000/svg">
<path d="M15.8333 22.9167C15.8333 24.5333 17.0834 25.8333 18.6167 25.8333H21.75C23.0833 25.8333 24.1667 24.7 24.1667 23.2834C24.1667 21.7667 23.5 21.2167 22.5167 20.8667L17.5 19.1167C16.5167 18.7667 15.85 18.2334 15.85 16.7C15.85 15.3 16.9333 14.15 18.2667 14.15H21.4C22.9333 14.15 24.1833 15.45 24.1833 17.0667" stroke="white" stroke-width="2" stroke-linecap="round" stroke-linejoin="round"/>
<path d="M20 12.5V27.5" stroke="white" stroke-width="2" stroke-linecap="round" stroke-linejoin="round"/>
<path d="M36.6667 20C36.6667 29.2 29.2 36.6667 20 36.6667C10.8 36.6667 3.33333 29.2 3.33333 20C3.33333 10.8 10.8 3.33334 20 3.33334" stroke="white" stroke-width="2" stroke-linecap="round" stroke-linejoin="round"/>
<path d="M36.6667 10V3.33334H30" stroke="white" stroke-width="2" stroke-linecap="round" stroke-linejoin="round"/>
<path d="M28.3333 11.6667L36.6667 3.33334" stroke="white" stroke-width="2" stroke-linecap="round" stroke-linejoin="round"/>
</svg>
