<svg height="512" viewBox="0 0 16.933 16.933" width="512" xmlns="http://www.w3.org/2000/svg">
    <path fill="#37813F" d="M8.467.529C5.109.529 2.38 3.257 2.38 6.615s2.728 6.084 6.086 6.084c3.357 0 6.086-2.726 6.086-6.084S11.824.529 8.467.529zm0 1.322c2.627 0 4.762 2.137 4.762 4.764s-2.135 4.762-4.762 4.762-4.762-2.135-4.762-4.762S5.84 1.85 8.467 1.85zm0 .53c-2.341 0-4.235 1.893-4.235 4.234s1.894 4.232 4.235 4.232c2.34 0 4.232-1.891 4.232-4.232S10.808 2.38 8.467 2.38zm.265 1.37.672 1.868 1.984.093c.248.011.346.325.15.475l-1.57 1.215.524 1.916a.265.265 0 0 1-.404.289L8.445 8.49 6.787 9.58a.265.265 0 0 1-.4-.295l.554-1.907-1.549-1.242a.265.265 0 0 1 .157-.47l1.986-.061.701-1.857a.26.26 0 0 1 .242-.173.26.26 0 0 1 .254.176zm-4.628 7.826L2.74 14.83a.265.265 0 0 0 .343.348l1.851-.744.732 1.825c.089.22.398.222.49.004l1.305-3.11a6.597 6.597 0 0 1-3.357-1.574zm8.726 0a6.597 6.597 0 0 1-3.357 1.575l1.305 3.11a.265.265 0 0 0 .489-.004l.732-1.825 1.852.743a.265.265 0 0 0 .342-.348z"/>
</svg>
