<svg width="10" height="14" viewBox="0 0 10 14" fill="none" xmlns="http://www.w3.org/2000/svg">
<path d="M2.68774 0.957847C4.14432 0.111516 5.93468 0.126309 7.37758 0.996596C8.8063 1.88461 9.67464 3.46945 9.66661 5.1743C9.6333 6.86796 8.70219 8.46 7.53831 9.69073C6.86655 10.4043 6.11507 11.0352 5.29922 11.5707C5.2152 11.6193 5.12316 11.6518 5.02765 11.6667C4.93573 11.6628 4.84621 11.6356 4.76716 11.5876C3.52161 10.783 2.42888 9.75602 1.54155 8.55597C0.799053 7.55424 0.377218 6.344 0.333328 5.08961L0.336652 4.90713C0.397276 3.26976 1.28319 1.77395 2.68774 0.957847ZM5.60484 3.68985C5.01271 3.43816 4.33002 3.5749 3.87554 4.03623C3.42106 4.49756 3.28442 5.19248 3.52944 5.79652C3.77445 6.40056 4.35278 6.79456 4.9944 6.79457C5.41473 6.79758 5.81879 6.62922 6.11654 6.32698C6.41428 6.02475 6.58098 5.61376 6.5795 5.18559C6.58174 4.53202 6.19697 3.94154 5.60484 3.68985Z" fill="white"/>
<path opacity="0.4" d="M4.99999 13.6667C6.84094 13.6667 8.33332 13.3682 8.33332 13C8.33332 12.6318 6.84094 12.3333 4.99999 12.3333C3.15904 12.3333 1.66666 12.6318 1.66666 13C1.66666 13.3682 3.15904 13.6667 4.99999 13.6667Z" fill="white"/>
</svg>
