<svg width="318" height="195" viewBox="0 0 318 195" fill="none" xmlns="http://www.w3.org/2000/svg">
<g clip-path="url(#clip0_2_756)" filter="url(#filter0_d_2_756)">
<path d="M241.343 184.885C237.374 181.502 234.964 176.156 235.596 170.953C236.228 165.749 240.144 160.965 245.223 159.86C250.302 158.755 256.093 161.814 257.635 166.82C258.484 157.168 259.463 147.112 264.549 138.893C269.154 131.45 277.13 126.125 285.774 125.172C294.419 124.22 303.52 127.818 308.911 134.702C314.302 141.586 315.622 151.594 311.846 159.498C309.065 165.32 303.94 169.653 298.571 173.178C281.221 184.473 260.412 189.066 239.973 186.113L241.343 184.885Z" fill="#F2F2F2"/>
<path d="M300.363 128.017C293.23 133.879 286.687 140.435 280.827 147.59C271.657 158.75 264.236 171.262 258.823 184.691C258.427 185.67 260.004 186.097 260.396 185.128C269.252 163.304 283.389 144.068 301.516 129.181C302.33 128.512 301.17 127.354 300.363 128.017Z" fill="white"/>
<path d="M103.794 183.966C109.245 179.318 112.556 171.977 111.688 164.829C110.82 157.682 105.441 151.112 98.465 149.594C91.4886 148.076 83.536 152.277 81.4171 159.154C80.2509 145.897 78.9071 132.085 71.9217 120.795C65.5965 110.573 54.6413 103.259 42.7682 101.95C30.8952 100.642 18.3944 105.584 10.9896 115.039C3.58485 124.494 1.77182 138.241 6.95794 149.096C10.7784 157.093 17.8169 163.044 25.1916 167.886C48.7194 183.333 77.9056 189.775 105.677 185.652" fill="#F2F2F2"/>
<path d="M22.7307 105.858C32.5274 113.909 41.5149 122.913 49.5631 132.741C57.6125 142.559 64.6993 153.141 70.7236 164.34C74.091 170.621 77.116 177.084 79.785 183.699C80.3292 185.044 78.1638 185.63 77.6256 184.299C72.898 172.638 67.049 161.472 60.1626 150.962C53.3097 140.49 45.4661 130.713 36.742 121.77C31.8077 116.713 26.6016 111.935 21.1472 107.455C20.0292 106.537 21.6219 104.947 22.7307 105.858L22.7307 105.858Z" fill="white"/>
<path d="M226.523 186.591H96.4655V51.9506C96.4655 23.3049 119.563 0 147.954 0H175.035C203.425 0 226.523 23.3049 226.523 51.9506V186.591Z" fill="#F2F2F2"/>
<path d="M199.443 186.591H96.4655V51.9506C96.4371 40.9742 99.8819 30.2752 106.298 21.4114C106.535 21.0861 106.771 20.7651 107.014 20.4475C110.118 16.3404 113.811 12.7233 117.973 9.71564C118.208 9.54307 118.444 9.3735 118.683 9.20392C122.165 6.77264 125.932 4.78511 129.897 3.28658C130.133 3.19653 130.373 3.1063 130.612 3.01975C134.199 1.72838 137.917 0.843801 141.697 0.38234C141.931 0.350038 142.172 0.32476 142.413 0.299482C146.097 -0.0979557 149.812 -0.0979557 153.496 0.299482C153.736 0.32476 153.977 0.350034 154.214 0.382686C157.993 0.844177 161.71 1.72865 165.296 3.01976C165.535 3.10631 165.775 3.19654 166.011 3.28677C169.928 4.7664 173.65 6.72426 177.095 9.11668C177.335 9.28257 177.574 9.45215 177.81 9.62172C180.143 11.3017 182.334 13.1732 184.361 15.2173C185.986 16.8568 187.501 18.6045 188.895 20.4486C189.137 20.7651 189.373 21.0862 189.609 21.4109C196.026 30.2748 199.471 40.974 199.443 51.9506V186.591Z" fill="#CCCCCC"/>
<path d="M191.069 126.371C194.218 126.371 196.77 123.796 196.77 120.619C196.77 117.442 194.218 114.867 191.069 114.867C187.92 114.867 185.368 117.442 185.368 120.619C185.368 123.796 187.92 126.371 191.069 126.371Z" fill="#38543E"/>
<path d="M215.869 182.558H211.5L209.422 165.557L215.869 165.557L215.869 182.558Z" fill="# "/>
<path d="M208.38 181.298H216.804V186.651H203.075C203.075 185.948 203.212 185.252 203.479 184.602C203.746 183.953 204.136 183.363 204.629 182.866C205.121 182.369 205.706 181.975 206.35 181.706C206.993 181.437 207.683 181.298 208.38 181.298V181.298Z" fill="#2F2E41"/>
<path d="M237.604 182.558H233.236L231.157 165.557L237.605 165.557L237.604 182.558Z" fill="#FFB8B8"/>
<path d="M230.115 181.298H238.54V186.651H224.811C224.811 185.948 224.948 185.252 225.215 184.602C225.481 183.953 225.872 183.363 226.364 182.866C226.857 182.369 227.442 181.975 228.085 181.706C228.729 181.437 229.419 181.298 230.115 181.298V181.298Z" fill="#2F2E41"/>
<path d="M193.954 121.758C193.64 121.291 193.431 120.76 193.342 120.203C193.253 119.645 193.287 119.075 193.44 118.532C193.593 117.989 193.863 117.486 194.229 117.06C194.596 116.633 195.051 116.293 195.562 116.062L210.412 74.7657L217.719 78.7892L200.763 118.254C201.089 119.146 201.08 120.127 200.737 121.013C200.394 121.898 199.741 122.626 198.901 123.058C198.062 123.49 197.095 123.596 196.183 123.356C195.271 123.117 194.478 122.548 193.954 121.758V121.758Z" fill="#FFB8B8"/>
<path d="M235.373 129.518C234.887 129.237 234.469 128.853 234.147 128.391C233.824 127.929 233.607 127.402 233.508 126.846C233.41 126.29 233.434 125.719 233.578 125.174C233.722 124.628 233.983 124.121 234.342 123.688L229.742 80.003L238.057 80.3863L239.969 123.356C240.65 124.013 241.068 124.9 241.144 125.847C241.221 126.795 240.95 127.738 240.384 128.497C239.817 129.257 238.994 129.78 238.07 129.968C237.147 130.157 236.187 129.996 235.373 129.518V129.518Z" fill="#FFB8B8"/>
<path d="M222.107 67.1164C226.94 67.1164 230.858 63.163 230.858 58.2862C230.858 53.4095 226.94 49.4561 222.107 49.4561C217.273 49.4561 213.355 53.4095 213.355 58.2862C213.355 63.163 217.273 67.1164 222.107 67.1164Z" fill="#FFB8B8"/>
<path d="M235.317 119.583H208.932L208.964 119.376C209.012 119.066 213.666 88.2993 210.233 78.2338C209.889 77.2447 209.919 76.1619 210.318 75.1939C210.718 74.226 211.458 73.4412 212.396 72.9907H212.396C217.303 70.6591 226.723 67.7881 234.673 74.7557C235.843 75.7979 236.757 77.1004 237.342 78.5603C237.927 80.0201 238.167 81.5973 238.044 83.167L235.317 119.583Z" fill="#38543E"/>
<path d="M214 92.8461L202.121 90.4146L207.689 77.1017C208.022 75.8122 208.849 74.7088 209.987 74.0334C211.126 73.358 212.483 73.1657 213.762 73.4988C215.041 73.8319 216.136 74.6631 216.809 75.8101C217.481 76.9572 217.675 78.3264 217.348 79.6174L214 92.8461Z" fill="#38543E"/>
<path d="M229.213 97.3608L228.499 80.844C227.958 77.7391 229.719 74.8039 232.429 74.3242C235.139 73.8462 237.785 75.9996 238.329 79.1273L241.013 94.5607L229.213 97.3608Z" fill="#38543E"/>
<path d="M234.439 117.606C238.684 133.919 239.148 154.661 238.002 177.286L232.301 176.567L221.968 133.424L216.267 177.286L209.853 176.926C207.937 153.187 206.071 132.808 209.14 119.403L234.439 117.606Z" fill="#2F2E41"/>
<path d="M227.873 65.1104C226.24 66.8652 223.208 65.9232 222.996 63.526C222.979 63.3398 222.98 63.1525 222.999 62.9667C223.109 61.9048 223.717 60.9407 223.571 59.8196C223.539 59.5405 223.435 59.2746 223.272 59.047C221.971 57.2892 218.917 59.8332 217.689 58.2419C216.936 57.2662 217.821 55.7299 217.244 54.6393C216.481 53.2 214.222 53.91 212.806 53.1218C211.23 52.2447 211.324 49.8051 212.362 48.3212C213.627 46.5115 215.845 45.5459 218.036 45.4067C220.226 45.2676 222.402 45.865 224.447 46.6692C226.77 47.5828 229.074 48.8455 230.504 50.907C232.243 53.414 232.411 56.7844 231.541 59.7159C231.012 61.4991 229.206 63.6775 227.873 65.1104Z" fill="#2F2E41"/>
<path d="M303.304 186.822H40.2335C40.1212 186.822 40.0136 186.776 39.9343 186.696C39.855 186.616 39.8105 186.507 39.8105 186.394C39.8105 186.281 39.855 186.172 39.9343 186.092C40.0136 186.011 40.1212 185.966 40.2335 185.966H303.304C303.416 185.966 303.524 186.011 303.603 186.092C303.682 186.172 303.727 186.281 303.727 186.394C303.727 186.507 303.682 186.616 303.603 186.696C303.524 186.776 303.416 186.822 303.304 186.822V186.822Z" fill="#3F3D56"/>
<path d="M171.115 147.583H124.793C124.183 147.586 123.597 147.345 123.162 146.913C122.728 146.48 122.482 145.892 122.477 145.276V40.9548C122.482 40.3393 122.728 39.7508 123.162 39.3184C123.597 38.886 124.183 38.645 124.793 38.6483H171.115C171.725 38.645 172.311 38.886 172.746 39.3184C173.18 39.7508 173.426 40.3393 173.431 40.9548V145.276C173.426 145.892 173.18 146.48 172.746 146.913C172.311 147.345 171.725 147.586 171.115 147.583V147.583Z" fill="white"/>
<path d="M173.431 72.4035H122.477V73.1226H173.431V72.4035Z" fill="#CCCCCC"/>
<path d="M173.609 113.428H122.655V114.147H173.609V113.428Z" fill="#CCCCCC"/>
<path d="M139.224 38.6483H138.511V147.942H139.224V38.6483Z" fill="#CCCCCC"/>
<path d="M157.04 38.6483H156.328V147.942H157.04V38.6483Z" fill="#CCCCCC"/>
</g>
<defs>
<filter id="filter0_d_2_756" x="0" y="0" width="318" height="195" filterUnits="userSpaceOnUse" color-interpolation-filters="sRGB">
<feFlood flood-opacity="0" result="BackgroundImageFix"/>
<feColorMatrix in="SourceAlpha" type="matrix" values="0 0 0 0 0 0 0 0 0 0 0 0 0 0 0 0 0 0 127 0" result="hardAlpha"/>
<feOffset dy="4"/>
<feGaussianBlur stdDeviation="2"/>
<feComposite in2="hardAlpha" operator="out"/>
<feColorMatrix type="matrix" values="0 0 0 0 0 0 0 0 0 0 0 0 0 0 0 0 0 0 0.25 0"/>
<feBlend mode="normal" in2="BackgroundImageFix" result="effect1_dropShadow_2_756"/>
<feBlend mode="normal" in="SourceGraphic" in2="effect1_dropShadow_2_756" result="shape"/>
</filter>
<clipPath id="clip0_2_756">
<rect width="310" height="187" fill="white" transform="translate(4)"/>
</clipPath>
</defs>
</svg>
