<svg id="Layer_1" enable-background="new 0 0 512 512" viewBox="0 0 512 512" xmlns="http://www.w3.org/2000/svg"><path d="m341.254 204.99c0-16.397 13.353-29.721 29.745-29.721 16.373 0 29.698 13.352 29.698 29.721s-13.326 29.717-29.698 29.717c-16.392 0-29.745-13.319-29.745-29.717zm-200.253 29.717c16.397 0 29.698-13.325 29.698-29.717 0-16.391-13.3-29.721-29.698-29.721s-29.697 13.33-29.697 29.721c0 16.392 13.3 29.717 29.697 29.717zm274.817 5.21-.098-.008h-111.585c-1.443 0-2.564-1.169-2.564-2.601v-60.323c0-7.593-6.193-13.74-13.777-13.74-7.566 0-13.731 6.175-13.731 13.74v76.664c0 7.563 6.167 13.74 13.731 13.74h38.348c1.437 0 2.61 1.162 2.61 2.601v188.6c0 10.925 8.896 19.809 19.818 19.809s19.818-8.884 19.818-19.809v-77.952c0-3.392 5.175-3.46 5.175 0v77.97c0 10.922 8.902 19.79 19.817 19.79 10.922 0 19.818-8.884 19.818-19.809v-175.722c0-3.424 5.221-3.424 5.221 0v79.645l3.092-.932c11.675-3.518 19.828-14.38 19.828-26.608v-67.271c0-14.394-11.161-26.605-25.521-27.784zm-159.818-101.302c-28.951 0-52.5-23.556-52.5-52.505 0-28.951 23.547-52.51 52.5-52.51 28.954 0 52.5 23.558 52.5 52.51 0 28.95-23.549 52.505-52.5 52.505zm25.014-72.252-34.008 33.978-16.024-16.077c-2.403-2.411-6.106 1.25-3.673 3.685l17.886 17.905c1.024 1.025 2.668 1.008 3.676-.001l35.82-35.815c2.443-2.44-1.284-6.088-3.677-3.675zm-56.854 96.882c-7.566 0-13.731 6.175-13.731 13.74v60.323c0 1.44-1.174 2.601-2.611 2.601h-111.537l-.098.008c-14.387 1.177-25.522 13.368-25.522 27.784v67.271c0 12.229 8.153 23.09 19.828 26.608l3.092.932v-79.645c0-3.394 5.174-3.46 5.174 0v175.724c0 10.925 8.896 19.809 19.818 19.809s19.818-8.884 19.818-19.809v-77.952c0-3.423 5.221-3.423 5.221 0v77.952c0 10.925 8.896 19.809 19.818 19.809 10.928 0 19.771-8.89 19.771-19.809v-188.6c0-1.439 1.173-2.601 2.61-2.601h38.349c7.588 0 13.73-6.155 13.73-13.74v-76.664c.001-7.588-6.14-13.741-13.73-13.741z"/></svg>